<svg id="Capa_1" data-name="Capa 1" xmlns="http://www.w3.org/2000/svg" xmlns:xlink="http://www.w3.org/1999/xlink" viewBox="0 0 272.03 227.73"><defs><style>.cls-1{font-size:23.97px;}.cls-1,.cls-2{fill:#167fbb;font-family:Oswald-Medium, Oswald;font-weight:500;}.cls-2{font-size:11.69px;letter-spacing:0.34em;}.cls-3{fill:url(#Degradado_sin_nombre_39);}.cls-4{fill:url(#Degradado_sin_nombre_39-2);}.cls-5{fill:url(#Degradado_sin_nombre_39-3);}.cls-6{fill:url(#Degradado_sin_nombre_39-4);}.cls-7{fill:url(#Degradado_sin_nombre_38);}.cls-8{fill:url(#Degradado_sin_nombre_39-5);}.cls-9{fill:url(#Degradado_sin_nombre_39-6);}.cls-10{fill:url(#Degradado_sin_nombre_39-7);}</style><linearGradient id="Degradado_sin_nombre_39" x1="189.75" y1="95.35" x2="145.32" y2="50.34" gradientUnits="userSpaceOnUse"><stop offset="0" stop-color="#4eb4e7"/><stop offset="1" stop-color="#86cedf"/></linearGradient><linearGradient id="Degradado_sin_nombre_39-2" x1="181.86" y1="103.14" x2="137.43" y2="58.13" xlink:href="#Degradado_sin_nombre_39"/><linearGradient id="Degradado_sin_nombre_39-3" x1="191.43" y1="93.69" x2="147" y2="48.68" xlink:href="#Degradado_sin_nombre_39"/><linearGradient id="Degradado_sin_nombre_39-4" x1="198.28" y1="86.93" x2="153.85" y2="41.92" xlink:href="#Degradado_sin_nombre_39"/><linearGradient id="Degradado_sin_nombre_38" x1="154.7" y1="147.8" x2="103.84" y2="28.54" gradientUnits="userSpaceOnUse"><stop offset="0" stop-color="#22254b"/><stop offset="1" stop-color="#28306b"/></linearGradient><linearGradient id="Degradado_sin_nombre_39-5" x1="79.23" y1="43.44" x2="170.94" y2="135.15" xlink:href="#Degradado_sin_nombre_39"/><linearGradient id="Degradado_sin_nombre_39-6" x1="86.95" y1="35.72" x2="178.66" y2="127.43" xlink:href="#Degradado_sin_nombre_39"/><linearGradient id="Degradado_sin_nombre_39-7" x1="82.08" y1="40.84" x2="173.53" y2="132.28" xlink:href="#Degradado_sin_nombre_39"/></defs><title>LOGOS CONVERTIC</title><text class="cls-1" transform="translate(82.24 178.17)">CONVERTIC</text><text class="cls-2" transform="translate(111.3 191.9) scale(0.97 1)">STORE</text><path class="cls-3" d="M187.15,64.75H137.67a2.91,2.91,0,0,0,0,5.8h49.48a2.91,2.91,0,0,0,0-5.8Z"/><path class="cls-4" d="M138.14,73l3.34,22.81a4.94,4.94,0,0,0,4.71,4.42h32.44a4.94,4.94,0,0,0,4.71-4.42L186.68,73H138.14Zm13.28,20.57a2,2,0,1,1-4,0V79.81a2,2,0,1,1,4,0Zm8.65,0a2,2,0,1,1-4,0V79.81a2,2,0,1,1,4,0Zm13.32-13.72a2,2,0,1,1,4,0V93.53a2,2,0,1,1-4,0Zm-8.65,0a2,2,0,1,1,4,0V93.53a2,2,0,1,1-4,0Z"/><path class="cls-5" d="M161.42,52.32a1.82,1.82,0,0,0-.5-2.53h0a1.83,1.83,0,0,0-2.53.49L149.19,64h4.41Z"/><path class="cls-6" d="M163.4,52.32a1.83,1.83,0,0,1,.49-2.53h0a1.84,1.84,0,0,1,2.54.49L175.62,64h-4.4Z"/><path class="cls-7" d="M157.49,107.05l1.27,7.17-36.37,19.39L105.46,38l40.82,5.73,1.27,7.18,1.77-.31L148,43.07c-.34-1.94-1.69-3.71-3-4l-39.59-7.06a3.77,3.77,0,0,0-1.16,0v0l-6.93,1.23a3.49,3.49,0,0,0-2.61,4.17l17.77,100.41a3.49,3.49,0,0,0,3.88,3l6.46-1.14v0a3.7,3.7,0,0,0,1.55-.5L159.08,119c1.19-.69,1.85-2.81,1.5-4.76l-1.32-7.48Z"/><path class="cls-8" d="M130.22,92.89H123A2.06,2.06,0,0,1,121,90.83h0A2.06,2.06,0,0,1,123,88.77h7.2a2.06,2.06,0,0,1,2.06,2.06h0A2.07,2.07,0,0,1,130.22,92.89Z"/><path class="cls-9" d="M130.22,77.45H123A2.06,2.06,0,0,1,121,75.39h0A2.06,2.06,0,0,1,123,73.33h7.2a2.06,2.06,0,0,1,2.06,2.06h0A2.07,2.07,0,0,1,130.22,77.45Z"/><path class="cls-10" d="M130.12,85.27H118.59a2.16,2.16,0,0,1-2.16-2.16h0a2.17,2.17,0,0,1,2.16-2.17h11.53a2.17,2.17,0,0,1,2.16,2.17h0A2.16,2.16,0,0,1,130.12,85.27Z"/></svg>