<svg id="Capa_1" data-name="Capa 1" xmlns="http://www.w3.org/2000/svg" xmlns:xlink="http://www.w3.org/1999/xlink" viewBox="0 0 272.03 227.73"><defs><style>.cls-1,.cls-2,.cls-3,.cls-4{fill:none;stroke-miterlimit:10;stroke-width:2px;}.cls-1,.cls-3{stroke-linecap:round;}.cls-1{stroke:url(#Degradado_sin_nombre_39);}.cls-2{stroke:url(#Degradado_sin_nombre_39-2);}.cls-3{stroke:url(#Degradado_sin_nombre_39-3);}.cls-4{stroke:url(#Degradado_sin_nombre_39-4);}.cls-5{font-size:23.97px;}.cls-5,.cls-6{fill:#167fbb;}.cls-5,.cls-6,.cls-7{font-family:Oswald-Medium, Oswald;font-weight:500;}.cls-6{font-size:11.69px;letter-spacing:0.34em;}.cls-7{font-size:40.49px;fill:#ffdf1e;}</style><linearGradient id="Degradado_sin_nombre_39" x1="69.03" y1="86.45" x2="159.49" y2="86.45" gradientUnits="userSpaceOnUse"><stop offset="0" stop-color="#4eb4e7"/><stop offset="1" stop-color="#86cedf"/></linearGradient><linearGradient id="Degradado_sin_nombre_39-2" x1="139.7" y1="54.75" x2="149.72" y2="54.75" xlink:href="#Degradado_sin_nombre_39"/><linearGradient id="Degradado_sin_nombre_39-3" x1="143.71" y1="70.35" x2="203" y2="70.35" xlink:href="#Degradado_sin_nombre_39"/><linearGradient id="Degradado_sin_nombre_39-4" x1="623.71" y1="89.98" x2="623.71" y2="40.53" gradientTransform="translate(-221.53 -375.86) rotate(45)" xlink:href="#Degradado_sin_nombre_39"/></defs><title>LOGOS CONVERTIC</title><path class="cls-1" d="M74.15,97.89,72.36,96.1a8,8,0,0,1,0-11.27l38.89-38.89a7.93,7.93,0,0,1,5.31-2.33l33.64-1.38a8,8,0,0,1,8.29,8.29L157.1,84.16a8,8,0,0,1-2.32,5.3l-38.89,38.89a8,8,0,0,1-11.27,0l-2.09-2.08"/><circle class="cls-2" cx="144.71" cy="54.75" r="4.01"/><path class="cls-3" d="M144.71,54.75l6-6a30,30,0,0,1,42.48,0h0a30,30,0,0,1,0,42.48l-9.54,9.55"/><path class="cls-4" d="M156.58,128.08h0a15.22,15.22,0,0,1,0-21.53l12-12a15.22,15.22,0,0,1,21.53,0h0a15.23,15.23,0,0,1,0,21.54l-12,12A15.23,15.23,0,0,1,156.58,128.08Zm8.73-30.26,21.53,21.53m3.29-24.82-14,14.06"/><text class="cls-5" transform="translate(88.83 170.25)">CONVERTIC</text><text class="cls-6" transform="translate(117.89 183.97) scale(0.97 1)">STORE</text><text class="cls-7" transform="translate(78.23 125.15)">C</text></svg>